# xmcd
#
# Track frame offsets:
#	150
#	14423
#	30942
#	45613
#	60066
#	74572
#	89659
#	103682
#	119115
#	133812
#	147211
#	158808
#	171034
#	186358
#
# Disc length: 2651 seconds
# Revision: 0
# Processed by: cddbd v1.5.2PL0 Copyright (c) Steve Scherf et al.
# Submitted via: dBpowerAMP V12.0
#
DISCID=c40a590e
DTITLE=Various Artist - Anytime Anyplace But Only You
DYEAR=2011
DGENRE=Country
TTITLE0=Russell Johnson - Any Time Any Place But Only You
TTITLE1=Russell Johnson - My Brown Eyed Darling
TTITLE2=Russell Johnson - It's My Heart
TTITLE3=Russell Johnson - This Love
TTITLE4=Russell Johnson with New Vintage - I Need to Know
TTITLE5=Russell Johnson - Old Moonshiner
TTITLE6=Russell Johnson - Together Forever
TTITLE7=Russell Johnson - Strength of  a  Woman
TTITLE8=Russell Johnson - Sway
TTITLE9=Russell Johnson with Emily Kirsch - Wishing Well Blues
TTITLE10=Russell Johnson - Mars Hill
TTITLE11=Russell Johnson - Goin'  Home
TTITLE12=Russell Johnson - When Love Comes to Town
TTITLE13=Russell Johnson with The Grass Cats - Bluegrass Time
EXTD=
EXTT0=
EXTT1=
EXTT2=
EXTT3=
EXTT4=
EXTT5=
EXTT6=
EXTT7=
EXTT8=
EXTT9=
EXTT10=
EXTT11=
EXTT12=
EXTT13=
PLAYORDER=
